<svg xmlns="http://www.w3.org/2000/svg" xmlns:xlink="http://www.w3.org/1999/xlink" width="1300" zoomAndPan="magnify" viewBox="100 116 1300 1300" height="1300" preserveAspectRatio="xMidYMid meet" version="1.0"><style>@media (prefers-color-scheme:dark){path[fill="#4b307f"]{fill:#af95db}}</style><defs><clipPath id="4e51d8f393"><path d="M 131.105469 306 L 1368.605469 306 L 1368.605469 1225.976562 L 131.105469 1225.976562 Z M 131.105469 306 " clip-rule="nonzero"/></clipPath><clipPath id="ffddd71298"><path d="M 0.386719 0 L 1237.605469 0 L 1237.605469 919.976562 L 0.386719 919.976562 Z M 0.386719 0 " clip-rule="nonzero"/></clipPath><clipPath id="435bb3765a"><rect x="0" width="1238" y="0" height="920"/></clipPath></defs><g clip-path="url(#4e51d8f393)"><g transform="matrix(1, 0, 0, 1, 131, 306)"><g clip-path="url(#435bb3765a)"><g clip-path="url(#ffddd71298)"><path fill="#4b307f" d="M 46.304688 386.660156 C 46.304688 592.925781 133.144531 712.53125 0.328125 803.15625 L 0.328125 919.765625 C 163.265625 919.765625 295.375 829.226562 295.375 666.292969 L 295.375 601.117188 C 241.738281 610.804688 157.628906 589.667969 128.738281 547.746094 C 125.570312 543.164062 127.15625 538.234375 132.527344 540.523438 C 172.601562 557.960938 249.839844 566.855469 328.839844 515.335938 C 343.109375 504.941406 362.046875 498.863281 384.328125 498.863281 C 411.542969 498.863281 432.855469 507.671875 447.125 521.941406 C 462.359375 537.351562 470.816406 560.25 470.816406 586.585938 L 470.816406 919.765625 L 767.179688 919.765625 L 767.179688 771.980469 C 767.179688 746.261719 776.074219 723.625 791.574219 708.039062 L 791.488281 707.949219 C 806.195312 693.328125 827.949219 684.257812 854.902344 684.257812 C 882.554688 684.257812 904.660156 693.242188 919.457031 707.949219 C 935.136719 723.449219 943.941406 746.171875 943.941406 771.980469 L 943.941406 919.765625 L 1237.664062 919.765625 L 1237.664062 386.660156 C 1237.664062 279.828125 1196.976562 183.386719 1127.308594 113.988281 C 1059.582031 46.523438 965.167969 5.214844 854.902344 5.214844 C 797.210938 5.214844 743.664062 18.164062 696.105469 41.238281 C 686.503906 45.90625 677.167969 51.015625 668.097656 56.5625 C 750.796875 145.515625 762.335938 273.398438 610.851562 368.871094 C 674.351562 299.820312 747.097656 150.183594 624.148438 30.757812 C 566.902344 -31.773438 509.832031 22.125 463.417969 13.757812 C 437.789062 9.179688 411.542969 5.214844 384.414062 5.214844 C 166.789062 5.214844 46.304688 168.414062 46.304688 386.660156 Z M 46.304688 386.660156 " fill-opacity="1" fill-rule="evenodd"/></g></g></g></g></svg>
