<svg xmlns="http://www.w3.org/2000/svg" xmlns:xlink="http://www.w3.org/1999/xlink" width="1403" zoomAndPan="magnify" viewBox="88 521 1403 211" height="211" preserveAspectRatio="xMidYMid meet" version="1.0"><defs><g/><clipPath id="516cd05c80"><path d="M 613.488281 535 L 856.488281 535 L 856.488281 716.332031 L 613.488281 716.332031 Z M 613.488281 535 " clip-rule="nonzero"/></clipPath><clipPath id="6ad71e3dba"><path d="M 0.488281 0.679688 L 243.277344 0.679688 L 243.277344 181.332031 L 0.488281 181.332031 Z M 0.488281 0.679688 " clip-rule="nonzero"/></clipPath><clipPath id="3582fdac3a"><rect x="0" width="244" y="0" height="182"/></clipPath></defs><g fill="#242424" fill-opacity="1"><g transform="translate(92.26266, 669.83061)"><g><path d="M 16.703125 -121.640625 C 18.753906 -121.640625 20.4375 -120.953125 21.75 -119.578125 C 23.070312 -118.203125 23.734375 -116.664062 23.734375 -114.96875 L 23.734375 -3.34375 C 23.734375 -1.875 23.054688 -0.570312 21.703125 0.5625 C 20.359375 1.707031 19.015625 2.28125 17.671875 2.28125 C 15.617188 2.28125 13.914062 1.664062 12.5625 0.4375 C 11.21875 -0.789062 10.546875 -2.375 10.546875 -4.3125 L 10.546875 -114.78125 C 10.546875 -116.539062 11.160156 -118.125 12.390625 -119.53125 C 13.617188 -120.9375 15.054688 -121.640625 16.703125 -121.640625 Z M 16.703125 -121.640625 "/></g></g></g><g fill="#242424" fill-opacity="1"><g transform="translate(107.817857, 669.83061)"><g/></g></g><g fill="#242424" fill-opacity="1"><g transform="translate(133.040393, 669.83061)"><g><path d="M 24.96875 -106.171875 C 23.09375 -104.359375 20.863281 -103.453125 18.28125 -103.453125 C 15.707031 -103.453125 13.484375 -104.359375 11.609375 -106.171875 C 9.734375 -107.984375 8.796875 -110.175781 8.796875 -112.75 C 8.796875 -115.332031 9.734375 -117.53125 11.609375 -119.34375 C 13.484375 -121.164062 15.707031 -122.078125 18.28125 -122.078125 C 20.863281 -122.078125 23.09375 -121.164062 24.96875 -119.34375 C 26.84375 -117.53125 27.78125 -115.332031 27.78125 -112.75 C 27.78125 -110.175781 26.84375 -107.984375 24.96875 -106.171875 Z M 11.859375 -84.375 C 11.859375 -85.84375 12.53125 -87.160156 13.875 -88.328125 C 15.226562 -89.503906 16.582031 -90.09375 17.9375 -90.09375 C 19.976562 -90.09375 21.671875 -89.472656 23.015625 -88.234375 C 24.367188 -87.003906 25.046875 -85.394531 25.046875 -83.40625 L 25.21875 -4.578125 C 25.21875 -2.753906 24.570312 -1.203125 23.28125 0.078125 C 22 1.367188 20.445312 2.015625 18.625 2.015625 C 16.8125 2.015625 15.257812 1.367188 13.96875 0.078125 C 12.6875 -1.203125 12.046875 -2.78125 12.046875 -4.65625 Z M 11.859375 -84.375 "/></g></g></g><g fill="#242424" fill-opacity="1"><g transform="translate(152.638296, 669.83061)"><g/></g></g><g fill="#242424" fill-opacity="1"><g transform="translate(177.860832, 669.83061)"><g><path d="M 17.140625 -90.265625 C 18.898438 -90.265625 20.363281 -89.617188 21.53125 -88.328125 C 22.707031 -87.035156 23.296875 -85.484375 23.296875 -83.671875 L 23.734375 -73.21875 C 32.867188 -84.40625 42.535156 -90 52.734375 -90 C 58.359375 -90 63.296875 -88.84375 67.546875 -86.53125 C 71.796875 -84.21875 75.164062 -81.050781 77.65625 -77.03125 C 80.144531 -73.019531 81.988281 -68.523438 83.1875 -63.546875 C 84.382812 -58.566406 84.984375 -53.175781 84.984375 -47.375 L 84.90625 -4.75 C 84.90625 -2.925781 84.257812 -1.367188 82.96875 -0.078125 C 81.675781 1.203125 80.125 1.84375 78.3125 1.84375 C 76.5 1.84375 74.945312 1.203125 73.65625 -0.078125 C 72.363281 -1.367188 71.71875 -2.953125 71.71875 -4.828125 L 71.8125 -47.375 C 71.8125 -67 65.453125 -76.8125 52.734375 -76.8125 C 43.296875 -76.8125 36.113281 -74.289062 31.1875 -69.25 C 26.269531 -64.21875 23.8125 -57.015625 23.8125 -47.640625 L 23.8125 -4.578125 C 23.8125 -2.753906 23.164062 -1.203125 21.875 0.078125 C 20.59375 1.367188 19.039062 2.015625 17.21875 2.015625 C 15.40625 2.015625 13.851562 1.367188 12.5625 0.078125 C 11.28125 -1.203125 10.640625 -2.78125 10.640625 -4.65625 L 10.546875 -83.578125 C 10.546875 -85.453125 11.175781 -87.035156 12.4375 -88.328125 C 13.695312 -89.617188 15.265625 -90.265625 17.140625 -90.265625 Z M 17.140625 -90.265625 "/></g></g></g><g fill="#242424" fill-opacity="1"><g transform="translate(254.671807, 669.83061)"><g/></g></g><g fill="#242424" fill-opacity="1"><g transform="translate(279.894343, 669.83061)"><g><path d="M 51.5 -89.46875 C 62.101562 -89.46875 72.179688 -84.375 81.734375 -74.1875 L 82.171875 -83.140625 C 82.171875 -84.960938 82.769531 -86.515625 83.96875 -87.796875 C 85.175781 -89.085938 86.660156 -89.734375 88.421875 -89.734375 C 90.234375 -89.734375 91.785156 -89.085938 93.078125 -87.796875 C 94.367188 -86.515625 95.015625 -84.960938 95.015625 -83.140625 L 94.921875 -82.96875 L 94.3125 0 C 94.25 8.207031 92.078125 15.851562 87.796875 22.9375 C 83.523438 30.03125 77.800781 35.65625 70.625 39.8125 C 63.445312 43.976562 55.695312 46.0625 47.375 46.0625 C 40.226562 46.0625 33.414062 44.492188 26.9375 41.359375 C 20.46875 38.222656 15.003906 33.867188 10.546875 28.296875 C 9.546875 27.066406 9.046875 25.660156 9.046875 24.078125 C 9.046875 22.265625 9.691406 20.710938 10.984375 19.421875 C 12.273438 18.128906 13.828125 17.484375 15.640625 17.484375 C 16.523438 17.484375 17.492188 17.75 18.546875 18.28125 C 19.597656 18.8125 20.390625 19.425781 20.921875 20.125 C 24.023438 24.050781 27.960938 27.15625 32.734375 29.4375 C 37.515625 31.726562 42.394531 32.875 47.375 32.875 C 56.457031 32.875 64.304688 29.601562 70.921875 23.0625 C 77.546875 16.53125 80.945312 8.785156 81.125 -0.171875 L 81.21875 -13.359375 C 71.25 -3.160156 61.34375 1.9375 51.5 1.9375 C 43.65625 1.9375 36.421875 -0.203125 29.796875 -4.484375 C 23.171875 -8.765625 18.015625 -14.390625 14.328125 -21.359375 C 10.640625 -28.328125 8.796875 -35.796875 8.796875 -43.765625 C 8.796875 -51.679688 10.625 -59.125 14.28125 -66.09375 C 17.945312 -73.0625 23.085938 -78.695312 29.703125 -83 C 36.328125 -87.3125 43.59375 -89.46875 51.5 -89.46875 Z M 80.953125 -43.765625 C 80.953125 -52.441406 78.109375 -60.03125 72.421875 -66.53125 C 66.734375 -73.039062 59.757812 -76.296875 51.5 -76.296875 C 43.1875 -76.296875 36.203125 -73.039062 30.546875 -66.53125 C 24.890625 -60.03125 22.0625 -52.441406 22.0625 -43.765625 C 22.0625 -38.140625 23.320312 -32.851562 25.84375 -27.90625 C 28.363281 -22.957031 31.90625 -18.941406 36.46875 -15.859375 C 41.039062 -12.785156 46.050781 -11.25 51.5 -11.25 C 56.945312 -11.25 61.941406 -12.769531 66.484375 -15.8125 C 71.023438 -18.863281 74.570312 -22.878906 77.125 -27.859375 C 79.675781 -32.835938 80.953125 -38.140625 80.953125 -43.765625 Z M 80.953125 -43.765625 "/></g></g></g><g fill="#242424" fill-opacity="1"><g transform="translate(366.724184, 669.83061)"><g/></g></g><g fill="#242424" fill-opacity="1"><g transform="translate(391.946732, 669.83061)"><g><path d="M 78.390625 2.28125 C 76.628906 2.28125 75.160156 1.632812 73.984375 0.34375 C 72.816406 -0.945312 72.234375 -2.5 72.234375 -4.3125 L 71.796875 -14.765625 C 62.660156 -3.578125 52.992188 2.015625 42.796875 2.015625 C 37.171875 2.015625 32.234375 0.855469 27.984375 -1.453125 C 23.734375 -3.765625 20.363281 -6.925781 17.875 -10.9375 C 15.382812 -14.957031 13.539062 -19.457031 12.34375 -24.4375 C 11.144531 -29.414062 10.546875 -34.804688 10.546875 -40.609375 L 10.625 -83.234375 C 10.625 -85.054688 11.269531 -86.609375 12.5625 -87.890625 C 13.851562 -89.179688 15.40625 -89.828125 17.21875 -89.828125 C 19.03125 -89.828125 20.582031 -89.179688 21.875 -87.890625 C 23.164062 -86.609375 23.8125 -85.03125 23.8125 -83.15625 L 23.71875 -40.609375 C 23.71875 -20.984375 30.078125 -11.171875 42.796875 -11.171875 C 52.234375 -11.171875 59.410156 -13.6875 64.328125 -18.71875 C 69.253906 -23.757812 71.71875 -30.96875 71.71875 -40.34375 L 71.71875 -83.40625 C 71.71875 -85.226562 72.359375 -86.78125 73.640625 -88.0625 C 74.929688 -89.351562 76.484375 -90 78.296875 -90 C 80.117188 -90 81.671875 -89.351562 82.953125 -88.0625 C 84.242188 -86.78125 84.890625 -85.203125 84.890625 -83.328125 L 84.984375 -4.40625 C 84.984375 -2.53125 84.351562 -0.945312 83.09375 0.34375 C 81.832031 1.632812 80.265625 2.28125 78.390625 2.28125 Z M 78.390625 2.28125 "/></g></g></g><g fill="#242424" fill-opacity="1"><g transform="translate(468.757706, 669.83061)"><g/></g></g><g fill="#242424" fill-opacity="1"><g transform="translate(493.980231, 669.83061)"><g><path d="M 51.765625 -90.09375 C 57.453125 -90.09375 62.726562 -88.523438 67.59375 -85.390625 C 72.457031 -82.253906 77.203125 -78.164062 81.828125 -73.125 L 82.625 -84.203125 C 82.625 -85.960938 83.101562 -87.425781 84.0625 -88.59375 C 85.03125 -89.769531 86.335938 -90.359375 87.984375 -90.359375 C 89.679688 -90.359375 91.128906 -89.753906 92.328125 -88.546875 C 93.523438 -87.347656 94.125 -85.898438 94.125 -84.203125 L 94.125 -4.75 C 94.125 -3.050781 93.523438 -1.597656 92.328125 -0.390625 C 91.128906 0.804688 89.679688 1.40625 87.984375 1.40625 C 86.285156 1.40625 84.832031 0.804688 83.625 -0.390625 C 82.425781 -1.597656 81.828125 -3.050781 81.828125 -4.75 L 81.828125 -14.765625 C 77.429688 -9.960938 72.597656 -6.003906 67.328125 -2.890625 C 62.054688 0.210938 56.722656 1.765625 51.328125 1.765625 C 43.535156 1.765625 36.34375 -0.375 29.75 -4.65625 C 23.15625 -8.9375 18.015625 -14.578125 14.328125 -21.578125 C 10.640625 -28.578125 8.796875 -36.0625 8.796875 -44.03125 C 8.796875 -52 10.640625 -59.5 14.328125 -66.53125 C 18.015625 -73.5625 23.179688 -79.242188 29.828125 -83.578125 C 36.484375 -87.921875 43.796875 -90.09375 51.765625 -90.09375 Z M 82.265625 -44.5625 C 82.265625 -53.175781 79.273438 -60.71875 73.296875 -67.1875 C 67.328125 -73.664062 60.179688 -76.90625 51.859375 -76.90625 C 43.472656 -76.90625 36.394531 -73.609375 30.625 -67.015625 C 24.851562 -60.421875 21.96875 -52.757812 21.96875 -44.03125 C 21.96875 -38.40625 23.226562 -33.101562 25.75 -28.125 C 28.269531 -23.144531 31.816406 -19.113281 36.390625 -16.03125 C 40.960938 -12.957031 45.941406 -11.421875 51.328125 -11.421875 C 56.773438 -11.421875 61.898438 -12.988281 66.703125 -16.125 C 71.515625 -19.257812 75.3125 -23.375 78.09375 -28.46875 C 80.875 -33.570312 82.265625 -38.9375 82.265625 -44.5625 Z M 82.265625 -44.5625 "/></g></g></g><g fill="#af95db" fill-opacity="1"><g transform="translate(870.18747, 670.580538)"><g><path d="M 200.5625 0.96875 C 191.945312 0.96875 184.632812 -2.0625 178.625 -8.125 C 172.625 -14.195312 169.625 -21.453125 169.625 -29.890625 C 169.625 -36.679688 171.425781 -42.640625 175.03125 -47.765625 C 178.632812 -52.890625 183.363281 -56.753906 189.21875 -59.359375 C 195.082031 -61.972656 201.5625 -63.28125 208.65625 -63.28125 C 213.28125 -63.28125 217.96875 -62.578125 222.71875 -61.171875 C 218.550781 -67.796875 212.847656 -73.054688 205.609375 -76.953125 C 198.378906 -80.847656 189.960938 -82.796875 180.359375 -82.796875 C 169.578125 -82.796875 160.816406 -79.378906 154.078125 -72.546875 C 147.335938 -65.722656 143.96875 -56.742188 143.96875 -45.609375 L 143.96875 -1.84375 C 143.96875 -1.082031 143.6875 -0.394531 143.125 0.21875 C 142.570312 0.832031 141.914062 1.140625 141.15625 1.140625 C 139.039062 1.140625 137.925781 0.144531 137.8125 -1.84375 L 137.71875 -37.703125 C 137.550781 -67.941406 124.78125 -83.0625 99.40625 -83.0625 C 95.769531 -83.0625 91.875 -82.5625 87.71875 -81.5625 C 91.695312 -78.75 95.164062 -75.347656 98.125 -71.359375 C 101.082031 -67.378906 102.5625 -63.015625 102.5625 -58.265625 C 102.5625 -52.117188 100.28125 -47.082031 95.71875 -43.15625 C 99.644531 -41.457031 102.804688 -38.921875 105.203125 -35.546875 C 107.609375 -32.179688 108.8125 -28.097656 108.8125 -23.296875 C 108.8125 -16.671875 106.304688 -10.984375 101.296875 -6.234375 C 96.285156 -1.492188 90.378906 0.875 83.578125 0.875 C 73.328125 0.875 64.785156 -3.035156 57.953125 -10.859375 C 51.128906 -18.679688 47.71875 -28.097656 47.71875 -39.109375 C 47.71875 -48.597656 50.03125 -57.050781 54.65625 -64.46875 C 59.289062 -71.882812 65.210938 -77.703125 72.421875 -81.921875 C 69.203125 -82.796875 65.304688 -83.234375 60.734375 -83.234375 C 52.296875 -83.234375 44.585938 -81.429688 37.609375 -77.828125 C 30.640625 -74.222656 25.101562 -69.125 21 -62.53125 C 16.90625 -55.9375 14.859375 -48.539062 14.859375 -40.34375 C 14.859375 -31.96875 17.210938 -24.484375 21.921875 -17.890625 C 26.640625 -11.296875 32.488281 -6.5625 39.46875 -3.6875 C 40.75 -3.164062 41.390625 -2.347656 41.390625 -1.234375 C 41.390625 -0.296875 41.125 0.519531 40.59375 1.21875 C 40.070312 1.925781 39.429688 2.28125 38.671875 2.28125 C 38.085938 2.28125 37.5625 2.191406 37.09375 2.015625 C 29.125 -1.316406 22.414062 -6.734375 16.96875 -14.234375 C 11.519531 -21.734375 8.796875 -30.226562 8.796875 -39.71875 C 8.796875 -49.21875 11.179688 -57.773438 15.953125 -65.390625 C 20.722656 -73.003906 27.125 -78.890625 35.15625 -83.046875 C 43.1875 -87.210938 52.003906 -89.296875 61.609375 -89.296875 C 68.523438 -89.296875 74.738281 -88.09375 80.25 -85.6875 C 86.28125 -87.976562 92.398438 -89.125 98.609375 -89.125 C 109.160156 -89.125 118.066406 -86.75 125.328125 -82 C 132.597656 -77.257812 137.726562 -70.671875 140.71875 -62.234375 C 143.53125 -70.078125 148.363281 -76.488281 155.21875 -81.46875 C 162.070312 -86.457031 170.332031 -88.953125 180 -88.953125 C 192.007812 -88.953125 202.597656 -86.09375 211.765625 -80.375 C 220.941406 -74.664062 227.550781 -67.035156 231.59375 -57.484375 C 238.914062 -53.554688 244.945312 -47.988281 249.6875 -40.78125 C 254.4375 -33.570312 256.8125 -25.164062 256.8125 -15.5625 C 256.8125 -6.53125 254.742188 1.703125 250.609375 9.140625 C 246.484375 16.578125 240.695312 22.460938 233.25 26.796875 C 225.8125 31.140625 217.492188 33.3125 208.296875 33.3125 C 201.859375 33.3125 195.632812 31.976562 189.625 29.3125 C 183.613281 26.644531 178.585938 23.40625 174.546875 19.59375 C 173.898438 18.957031 173.578125 18.226562 173.578125 17.40625 C 173.578125 16.582031 173.882812 15.863281 174.5 15.25 C 175.125 14.632812 175.84375 14.328125 176.65625 14.328125 C 177.539062 14.328125 178.273438 14.617188 178.859375 15.203125 C 187.003906 22.992188 196.992188 26.890625 208.828125 26.890625 C 216.148438 26.890625 223.019531 25.054688 229.4375 21.390625 C 235.851562 17.734375 241.007812 12.648438 244.90625 6.140625 C 248.800781 -0.355469 250.75 -7.445312 250.75 -15.125 C 250.75 -22.445312 249.382812 -28.742188 246.65625 -34.015625 C 243.9375 -39.285156 239.910156 -44.003906 234.578125 -48.171875 C 235.335938 -44.710938 235.71875 -41.222656 235.71875 -37.703125 C 235.71875 -26.984375 232.390625 -17.859375 225.734375 -10.328125 C 219.085938 -2.796875 210.695312 0.96875 200.5625 0.96875 Z M 86.921875 -38.765625 C 86.628906 -38.765625 86.203125 -38.734375 85.640625 -38.671875 C 85.085938 -38.609375 84.695312 -38.578125 84.46875 -38.578125 C 82.0625 -38.578125 80.859375 -39.488281 80.859375 -41.3125 C 80.859375 -42.71875 81.222656 -43.65625 81.953125 -44.125 C 82.691406 -44.59375 84.023438 -44.941406 85.953125 -45.171875 C 88.828125 -45.585938 91.289062 -47.023438 93.34375 -49.484375 C 95.394531 -51.941406 96.421875 -54.84375 96.421875 -58.1875 C 96.421875 -62.519531 94.804688 -66.472656 91.578125 -70.046875 C 88.359375 -73.617188 84.519531 -76.578125 80.0625 -78.921875 C 72.6875 -75.640625 66.445312 -70.515625 61.34375 -63.546875 C 56.25 -56.578125 53.703125 -48.609375 53.703125 -39.640625 C 53.703125 -33.429688 54.84375 -27.75 57.125 -22.59375 C 59.414062 -17.4375 62.800781 -13.257812 67.28125 -10.0625 C 71.757812 -6.875 76.929688 -5.28125 82.796875 -5.28125 C 88.003906 -5.28125 92.628906 -6.960938 96.671875 -10.328125 C 100.722656 -13.691406 102.75 -17.835938 102.75 -22.765625 C 102.75 -27.390625 101.191406 -31.210938 98.078125 -34.234375 C 94.972656 -37.253906 91.253906 -38.765625 86.921875 -38.765625 Z M 200.484375 -5.359375 C 208.921875 -5.359375 215.863281 -8.59375 221.3125 -15.0625 C 226.757812 -21.539062 229.484375 -29.265625 229.484375 -38.234375 C 229.484375 -43.390625 228.578125 -48.3125 226.765625 -53 C 221.304688 -55.632812 215.414062 -56.953125 209.09375 -56.953125 C 203.113281 -56.953125 197.632812 -55.96875 192.65625 -54 C 187.675781 -52.039062 183.601562 -48.976562 180.4375 -44.8125 C 177.269531 -40.65625 175.6875 -35.738281 175.6875 -30.0625 C 175.6875 -23.207031 178.132812 -17.375 183.03125 -12.5625 C 187.925781 -7.757812 193.742188 -5.359375 200.484375 -5.359375 Z M 200.484375 -5.359375 "/></g></g></g><g fill="#af95db" fill-opacity="1"><g transform="translate(1117.160814, 670.580538)"><g><path d="M 129.546875 -85.953125 C 129.546875 -86.773438 129.851562 -87.492188 130.46875 -88.109375 C 131.082031 -88.722656 131.800781 -89.03125 132.625 -89.03125 C 133.445312 -89.03125 134.164062 -88.722656 134.78125 -88.109375 C 135.394531 -87.492188 135.703125 -86.773438 135.703125 -85.953125 L 135.875 -3.078125 C 135.875 -2.253906 135.566406 -1.535156 134.953125 -0.921875 C 134.335938 -0.304688 133.617188 0 132.796875 0 L 11.859375 -0.09375 C 11.046875 -0.09375 10.332031 -0.398438 9.71875 -1.015625 C 9.101562 -1.628906 8.796875 -2.347656 8.796875 -3.171875 L 8.796875 -33.21875 C 8.796875 -42.65625 9.410156 -50.15625 10.640625 -55.71875 C 11.867188 -61.289062 14.328125 -66.679688 18.015625 -71.890625 C 21.410156 -76.753906 25.976562 -80.78125 31.71875 -83.96875 C 37.46875 -87.164062 43.738281 -88.765625 50.53125 -88.765625 C 58.5 -88.765625 65.722656 -86.90625 72.203125 -83.1875 C 78.679688 -79.46875 83.75 -74.351562 87.40625 -67.84375 C 91.070312 -61.34375 92.90625 -54.109375 92.90625 -46.140625 C 92.90625 -43.035156 92.550781 -39.988281 91.84375 -37 C 91.4375 -35.414062 90.441406 -34.625 88.859375 -34.625 L 15.03125 -34.453125 L 14.9375 -34.453125 L 14.9375 -6.234375 L 129.734375 -6.15625 Z M 51.328125 -82.4375 C 45.117188 -82.4375 39.597656 -81.144531 34.765625 -78.5625 C 29.929688 -75.988281 25.988281 -72.535156 22.9375 -68.203125 C 20.1875 -64.335938 18.222656 -60.265625 17.046875 -55.984375 C 15.878906 -51.710938 15.207031 -46.585938 15.03125 -40.609375 L 86.21875 -40.78125 C 86.507812 -42.425781 86.65625 -44.359375 86.65625 -46.578125 C 86.65625 -56.191406 83.226562 -64.570312 76.375 -71.71875 C 69.519531 -78.863281 61.171875 -82.4375 51.328125 -82.4375 Z M 51.328125 -82.4375 "/></g></g></g><g fill="#af95db" fill-opacity="1"><g transform="translate(1243.108776, 670.580538)"><g><path d="M 36.21875 -89.296875 C 42.71875 -89.296875 48.191406 -87.242188 52.640625 -83.140625 C 57.097656 -79.046875 60.351562 -74.007812 62.40625 -68.03125 C 64.976562 -74.0625 68.785156 -79.082031 73.828125 -83.09375 C 78.867188 -87.113281 84.875 -89.125 91.84375 -89.125 C 100.925781 -89.125 108.234375 -85.707031 113.765625 -78.875 C 119.304688 -72.050781 122.078125 -63.773438 122.078125 -54.046875 C 122.078125 -44.035156 119.75 -35.085938 115.09375 -27.203125 C 110.4375 -19.316406 104.125 -12.828125 96.15625 -7.734375 C 101.425781 -5.921875 106.523438 -5.015625 111.453125 -5.015625 C 119.765625 -5.015625 127.363281 -7.003906 134.25 -10.984375 C 141.132812 -14.972656 146.523438 -20.378906 150.421875 -27.203125 C 154.316406 -34.023438 156.265625 -41.507812 156.265625 -49.65625 C 156.265625 -56.21875 154.945312 -62.441406 152.3125 -68.328125 C 149.675781 -74.222656 145.867188 -79.394531 140.890625 -83.84375 C 140.179688 -84.4375 139.828125 -85.171875 139.828125 -86.046875 C 139.828125 -86.867188 140.148438 -87.613281 140.796875 -88.28125 C 141.441406 -88.957031 142.175781 -89.296875 143 -89.296875 C 143.757812 -89.296875 144.429688 -89.003906 145.015625 -88.421875 C 150.640625 -83.378906 154.945312 -77.519531 157.9375 -70.84375 C 160.925781 -64.164062 162.421875 -57.101562 162.421875 -49.65625 C 162.421875 -42.6875 161.070312 -36.050781 158.375 -29.75 C 155.6875 -23.445312 152.054688 -18.054688 147.484375 -13.578125 C 142.910156 -9.097656 137.441406 -5.535156 131.078125 -2.890625 C 124.722656 -0.253906 118.03125 1.0625 111 1.0625 C 103.445312 1.0625 96.125 -0.582031 89.03125 -3.875 C 81.945312 -0.644531 74.445312 0.96875 66.53125 0.96875 C 56.039062 0.96875 46.375 -1.609375 37.53125 -6.765625 C 28.6875 -11.921875 21.6875 -18.953125 16.53125 -27.859375 C 11.375 -36.765625 8.796875 -46.519531 8.796875 -57.125 C 8.796875 -62.925781 9.847656 -68.242188 11.953125 -73.078125 C 14.066406 -77.910156 17.242188 -81.820312 21.484375 -84.8125 C 25.734375 -87.800781 30.644531 -89.296875 36.21875 -89.296875 Z M 36.21875 -83.0625 C 29.65625 -83.0625 24.46875 -80.523438 20.65625 -75.453125 C 16.84375 -70.390625 14.9375 -64.253906 14.9375 -57.046875 C 14.9375 -47.609375 17.191406 -38.921875 21.703125 -30.984375 C 26.222656 -23.046875 32.421875 -16.757812 40.296875 -12.125 C 48.179688 -7.5 56.8125 -5.1875 66.1875 -5.1875 C 71.75 -5.1875 77.078125 -6.066406 82.171875 -7.828125 C 74.796875 -12.804688 69.082031 -19.054688 65.03125 -26.578125 C 60.988281 -34.109375 58.910156 -42.59375 58.796875 -52.03125 C 58.742188 -55.957031 58.273438 -59.722656 57.390625 -63.328125 C 56.515625 -66.929688 55.195312 -70.226562 53.4375 -73.21875 C 51.675781 -76.207031 49.316406 -78.59375 46.359375 -80.375 C 43.398438 -82.164062 40.019531 -83.0625 36.21875 -83.0625 Z M 91.765625 -82.96875 C 86.304688 -82.96875 81.5 -81.367188 77.34375 -78.171875 C 73.1875 -74.984375 70.097656 -70.984375 68.078125 -66.171875 C 66.054688 -61.367188 65.046875 -56.242188 65.046875 -50.796875 C 65.046875 -42.304688 67.253906 -34.5 71.671875 -27.375 C 76.097656 -20.257812 81.914062 -14.738281 89.125 -10.8125 C 97.09375 -14.914062 103.550781 -20.742188 108.5 -28.296875 C 113.445312 -35.859375 115.921875 -44.414062 115.921875 -53.96875 C 115.921875 -62.113281 113.738281 -68.984375 109.375 -74.578125 C 105.007812 -80.171875 99.140625 -82.96875 91.765625 -82.96875 Z M 91.765625 -82.96875 "/></g></g><g transform="translate(1414.319699, 670.580538)"><g><path d="M 16.484375 -43.90625 C 21.609375 -49.03125 27.800781 -51.59375 35.0625 -51.59375 C 42.332031 -51.59375 48.53125 -49.03125 53.65625 -43.90625 C 58.78125 -38.78125 61.34375 -32.582031 61.34375 -25.3125 C 61.34375 -18.050781 58.78125 -11.851562 53.65625 -6.71875 C 48.53125 -1.59375 42.332031 0.96875 35.0625 0.96875 C 27.800781 0.96875 21.609375 -1.59375 16.484375 -6.71875 C 11.359375 -11.851562 8.796875 -18.050781 8.796875 -25.3125 C 8.796875 -32.582031 11.359375 -38.78125 16.484375 -43.90625 Z M 49 -39.234375 C 45.164062 -43.078125 40.519531 -45 35.0625 -45 C 29.613281 -45 24.96875 -43.078125 21.125 -39.234375 C 17.289062 -35.398438 15.375 -30.757812 15.375 -25.3125 C 15.375 -19.863281 17.289062 -15.21875 21.125 -11.375 C 24.96875 -7.539062 29.613281 -5.625 35.0625 -5.625 C 40.519531 -5.625 45.164062 -7.539062 49 -11.375 C 52.832031 -15.21875 54.75 -19.863281 54.75 -25.3125 C 54.75 -30.757812 52.832031 -35.398438 49 -39.234375 Z M 49 -39.234375 "/></g></g></g><g clip-path="url(#516cd05c80)"><g transform="matrix(1, 0, 0, 1, 613, 535)"><g clip-path="url(#3582fdac3a)"><g clip-path="url(#6ad71e3dba)"><path fill="#4b307f" d="M 9.550781 76.65625 C 9.550781 117.117188 26.585938 140.574219 0.53125 158.351562 L 0.53125 181.226562 C 32.492188 181.226562 58.40625 163.464844 58.40625 131.507812 L 58.40625 118.722656 C 47.886719 120.621094 31.386719 116.476562 25.71875 108.253906 C 25.097656 107.355469 25.410156 106.386719 26.464844 106.835938 C 34.324219 110.257812 49.472656 112.003906 64.96875 101.894531 C 67.769531 99.859375 71.484375 98.664062 75.855469 98.664062 C 81.191406 98.664062 85.371094 100.394531 88.171875 103.191406 C 91.160156 106.214844 92.820312 110.707031 92.820312 115.871094 L 92.820312 181.226562 L 150.949219 181.226562 L 150.949219 152.238281 C 150.949219 147.191406 152.695312 142.753906 155.734375 139.695312 L 155.71875 139.675781 C 158.601562 136.808594 162.871094 135.03125 168.15625 135.03125 C 173.582031 135.03125 177.917969 136.792969 180.820312 139.675781 C 183.894531 142.71875 185.621094 147.175781 185.621094 152.238281 L 185.621094 181.226562 L 243.234375 181.226562 L 243.234375 76.65625 C 243.234375 55.703125 235.253906 36.785156 221.589844 23.171875 C 208.304688 9.9375 189.785156 1.835938 168.15625 1.835938 C 156.839844 1.835938 146.335938 4.375 137.007812 8.902344 C 135.125 9.816406 133.292969 10.820312 131.515625 11.90625 C 147.738281 29.355469 150 54.441406 120.285156 73.167969 C 132.742188 59.621094 147.011719 30.273438 122.894531 6.847656 C 111.664062 -5.417969 100.472656 5.152344 91.367188 3.511719 C 86.339844 2.613281 81.191406 1.835938 75.871094 1.835938 C 33.183594 1.835938 9.550781 33.847656 9.550781 76.65625 Z M 9.550781 76.65625 " fill-opacity="1" fill-rule="evenodd"/></g></g></g></g></svg>
